<?xml version="1.0" standalone="no"?><!DOCTYPE svg PUBLIC "-//W3C//DTD SVG 1.1//EN" "http://www.w3.org/Graphics/SVG/1.1/DTD/svg11.dtd"><svg t="1531789519622" class="icon" style="" viewBox="0 0 1024 1024" version="1.1" xmlns="http://www.w3.org/2000/svg" p-id="2186" xmlns:xlink="http://www.w3.org/1999/xlink" width="200" height="200"><defs><style type="text/css"></style></defs><path d="M968.772267 508.791467 757.111467 297.0624 757.111467 455.611733 680.0384 455.611733 671.061333 455.611733 368.503467 455.611733 368.503467 562.005333 671.061333 562.005333 680.0384 562.005333 757.111467 562.005333 757.111467 720.452267Z" p-id="2187"></path><path d="M578.389333 781.585067c0 13.175467-10.717867 23.927467-23.927467 23.927467L126.976 805.512533c-13.2096 0-23.927467-10.752-23.927467-23.927467L103.048533 242.414933c0-13.175467 10.717867-23.927467 23.927467-23.927467l427.485867 0c13.2096 0 23.927467 10.752 23.927467 23.927467l0 99.191467 47.8208 0L626.210133 242.414933C626.210133 202.8544 594.0224 170.666667 554.461867 170.666667L126.976 170.666667C87.415467 170.666667 55.227733 202.8544 55.227733 242.414933l0 539.170133C55.227733 821.1456 87.415467 853.333333 126.976 853.333333l427.485867 0c39.560533 0 71.748267-32.187733 71.748267-71.748267l0-99.191467-47.8208 0L578.389333 781.585067z" p-id="2188"></path></svg>